<svg width="70" height="70" viewBox="0 0 70 70" fill="none" xmlns="http://www.w3.org/2000/svg">
<path opacity="0.5" d="M67.0671 5.4105L51.388 60.9541C51.3083 61.2062 50.9894 61.2819 50.8034 61.1054L40.3064 51.1464L48.1725 23.3115C48.2522 23.0594 48.0131 22.8325 47.7473 22.9081L18.409 30.3711L7.96515 20.4625C7.77913 20.286 7.85885 19.9834 8.1246 19.9078L66.6419 5.0071C66.9076 4.95667 67.1468 5.18359 67.0671 5.4105Z" fill="#00B37E"/>
<path opacity="0.5" d="M40.3058 51.1459L36.2665 65.5171C36.1868 65.7693 35.8679 65.8449 35.6818 65.6684L3.10138 34.7828C2.91536 34.6063 2.99508 34.3038 3.26083 34.2282L18.4084 30.3706L40.3058 51.1459Z" fill="#00B37E"/>
<path d="M48.171 23.311L40.3049 51.1459L18.4075 30.3706L47.7458 22.9076C48.0116 22.832 48.2507 23.0589 48.171 23.311Z" fill="#00B37E"/>
</svg>
